<svg width="85" height="85" viewBox="0 0 85 85"  xmlns="http://www.w3.org/2000/svg">
<g clip-path="url(#clip0_629_3869)">
<path d="M54.3312 7.03644C56.8115 8.41212 57.7907 10.576 58.2222 13.3384C59.4577 21.2426 60.8943 29.1155 62.3253 36.9883C63.3635 42.7065 61.6319 44.9257 55.9226 44.933C46.9825 44.9441 38.0423 44.957 29.1022 44.9275C24.385 44.9128 22.386 42.6494 23.155 38.0012C24.5934 29.2996 26.2106 20.6275 27.6398 11.9259C27.9939 9.76018 29.4562 8.49315 30.7619 7.03644C38.6177 7.03644 46.4753 7.03644 54.3312 7.03644Z" />
<path d="M22.5389 49.5445C24.654 48.1264 26.7084 47.9275 28.8438 47.9331C38.1565 47.9625 47.4691 47.9533 56.7817 47.9386C58.908 47.9349 60.9918 48.0325 62.764 49.3769C63.5237 48.6992 63.3965 47.8133 63.6104 47.0564C64.6007 43.5684 67.7799 40.8834 71.3058 40.6163C73.196 40.4727 74.6288 41.2093 74.8962 43.1578C75.1433 44.946 74.1309 46.2019 72.3274 46.3861C69.6885 46.655 69.0486 48.2185 69.1132 50.526C69.1814 52.9846 69.1869 55.4505 69.1132 57.909C69.0025 61.6217 66.561 63.9403 62.8414 63.9513C57.82 63.9642 52.7967 64.0269 47.7771 63.9145C46.0805 63.8758 45.6398 64.3565 45.649 66.0453C45.6748 71.2054 45.5918 71.2036 50.77 71.2054C52.2305 71.2054 53.6984 71.1318 55.1497 71.2423C56.9035 71.3767 58.1408 72.3196 58.1187 74.1704C58.0984 75.9826 56.9588 77.0525 55.1442 77.0617C46.9269 77.1041 38.7097 77.1023 30.4924 77.0617C28.676 77.0525 27.54 75.9863 27.5142 74.1741C27.4902 72.3196 28.7239 71.3325 30.4777 71.2496C32.9377 71.1336 35.4125 71.1023 37.8688 71.2423C39.6151 71.3417 39.9821 70.6972 39.9803 69.06C39.9747 63.9532 40.0466 63.9532 34.8518 63.9532C30.7432 63.9532 26.6346 63.9734 22.526 63.9477C19.1476 63.9256 16.6728 61.5978 16.5345 58.1908C16.4239 55.4597 16.4884 52.7231 16.5087 49.9883C16.5235 47.968 15.7157 46.6973 13.5803 46.434C11.5186 46.1798 10.3587 44.9865 10.8049 42.9073C11.2567 40.806 12.909 40.3475 14.8509 40.7158C19.5183 41.6016 21.8141 44.6642 22.5389 49.5445Z" />
</g>
<defs>
<clipPath id="clip0_629_3869">
<rect width="64.2185" height="70.0566" fill="white" transform="translate(10.7168 7.03644)"/>
</clipPath>
</defs>
</svg>
