<svg width="100%" height="100%" viewBox="0 0 17 15" xmlns="http://www.w3.org/2000/svg">
<g clip-path="url(#clip0_708_3659)">
<path d="M14.2298 3.29656C13.8918 2.99171 13.4906 2.74987 13.049 2.58488C12.6074 2.41988 12.134 2.33496 11.656 2.33496C11.178 2.33496 10.7046 2.41988 10.263 2.58488C9.82137 2.74987 9.42013 2.99171 9.0822 3.29656L8.38085 3.92895L7.67951 3.29656C6.9969 2.68106 6.07108 2.33528 5.10572 2.33528C4.14036 2.33528 3.21453 2.68106 2.53192 3.29656C1.84931 3.91206 1.46582 4.74685 1.46582 5.6173C1.46582 6.48775 1.84931 7.32254 2.53192 7.93804L3.23326 8.57042L8.38085 13.2119L13.5284 8.57042L14.2298 7.93804C14.5679 7.63333 14.8361 7.27154 15.0191 6.87334C15.2021 6.47514 15.2962 6.04833 15.2962 5.6173C15.2962 5.18627 15.2021 4.75946 15.0191 4.36126C14.8361 3.96306 14.5679 3.60127 14.2298 3.29656V3.29656Z" stroke="#E91B1A" stroke-linecap="round" stroke-linejoin="round"/>
</g>
<defs>
<clipPath id="clip0_708_3659">
<rect width="15.8795" height="14.3182" fill="white" transform="translate(0.440918 0.545898)"/>
</clipPath>
</defs>
</svg>
