<svg width="85" height="85" viewBox="0 0 85 85" xmlns="http://www.w3.org/2000/svg">
<path d="M4.0634 37.3968C4.23006 37.0653 4.41013 36.7395 4.55954 36.4003C5.64953 33.9331 7.95209 32.5491 10.6531 32.7418C13.174 32.923 15.3598 34.6732 15.9785 37.258C16.6796 40.1898 17.1949 43.1659 17.8156 46.1169C18.3826 48.8135 19.9055 50.0953 22.618 50.0972C34.7687 50.1107 46.9213 50.1107 59.0721 50.0972C61.7807 50.0933 63.2979 48.8135 63.8687 46.1111C64.4319 43.4415 64.9568 40.7622 65.5104 38.0907C66.1579 34.9585 68.1405 33.004 70.8914 32.7611C73.9544 32.4913 76.1095 33.9311 77.368 37.0768C77.4159 37.1983 77.5347 37.2908 77.6209 37.3968C77.6209 38.6439 77.6209 39.8929 77.6209 41.14C77.4313 43.2314 77.2282 45.3227 77.0577 47.416C76.914 49.1836 76.9294 50.9704 76.6688 52.7186C75.962 57.468 72.0618 60.5848 66.8782 60.5925C56.0703 60.6099 45.2605 60.5983 34.4526 60.5983C27.9491 60.5983 21.4437 60.6079 14.9402 60.5945C8.8984 60.5829 5.25491 57.0652 4.86987 50.9993C4.66107 47.709 4.3335 44.4245 4.05957 41.1381C4.0634 39.8929 4.0634 38.6439 4.0634 37.3968Z" />
<path d="M20.288 62.9325C19.8455 64.6422 19.5428 66.1437 19.0601 67.5855C18.4548 69.3935 16.6694 70.2609 14.9358 69.7308C13.1658 69.1892 12.2175 67.5624 12.5853 65.6985C13.1313 62.9325 13.1313 62.9325 15.8629 62.9325C17.2403 62.9325 18.6214 62.9325 20.288 62.9325Z" />
<path d="M61.3921 62.9267C63.7176 62.9267 65.7654 62.9152 67.8132 62.9441C68.0412 62.9479 68.4281 63.1503 68.4684 63.3238C68.7423 64.5266 69.1599 65.7525 69.1177 66.9572C69.0641 68.557 67.6389 69.7443 66.0681 69.887C64.5912 70.02 63.12 69.116 62.6277 67.6029C62.1583 66.1572 61.8423 64.6596 61.3921 62.9267Z" />
<path d="M40.5673 17.5608C47.3141 17.5608 54.0628 17.5203 60.8096 17.5723C67.2786 17.6205 71.6979 23.3202 70.1942 29.6232C70.0984 30.026 69.6769 30.531 69.2977 30.6563C65.817 31.8032 63.8477 34.1817 63.1964 37.7688C62.7252 40.3594 62.1735 42.9365 61.6276 45.5117C61.2444 47.3177 60.6812 47.7803 58.8978 47.7823C46.839 47.7881 34.7803 47.79 22.7215 47.7823C21.0358 47.7803 20.4362 47.2888 20.078 45.5888C19.5052 42.871 18.9899 40.1416 18.4229 37.4219C17.6528 33.723 15.4269 31.3907 11.7546 30.5464C11.0114 30.3749 10.7624 30.0935 10.611 29.3784C9.30074 23.1891 13.6856 17.6244 20.0397 17.5723C26.8822 17.5184 33.7248 17.5608 40.5673 17.5608Z" />
</svg>
