<svg width="85" height="85" viewBox="0 0 85 85" xmlns="http://www.w3.org/2000/svg">
<g clip-path="url(#clip0_629_3873)">
<path d="M19.0693 32.4397C19.0693 32.9333 19.0693 33.4156 19.0693 33.9092C19.0693 41.7843 19.0693 41.8516 26.9903 41.9413C30.0467 41.975 32.6132 42.5247 32.5549 46.0247C32.5082 49.1994 30.1051 49.7266 27.247 49.9398C25.4855 50.0632 21.8458 48.3805 22.2774 51.6561C22.6507 54.4943 18.3811 59.6658 25.5438 60.2828C26.3487 60.3501 27.247 60.7876 27.0487 61.8533C26.862 62.8405 25.8704 62.9976 25.0888 63.0088C22.0324 63.0873 18.976 63.0873 15.9313 63.0312C15.1497 63.02 14.1348 62.8742 13.9948 61.8646C13.7964 60.4847 14.9397 60.3501 15.9546 60.2267C22.2657 59.4975 18.0661 54.9318 18.9643 52.2619C19.9326 49.4013 17.3428 49.8388 15.558 49.8388C12.4199 49.8276 10.8917 48.3132 10.9034 45.3067C10.9034 38.7779 10.9267 32.249 10.8917 25.7201C10.88 23.039 11.9649 21.1768 14.9164 21.1431C17.8444 21.1095 19.0927 22.8707 19.0693 25.5855C19.0577 27.8739 19.0693 30.1624 19.0693 32.4397Z" />
</g>
<path d="M67.9136 32.3504C67.9136 32.844 67.9136 33.3263 67.9136 33.8199C67.9136 41.695 67.9136 41.7623 59.9926 41.852C56.9362 41.8857 54.3697 42.4354 54.428 45.9354C54.4747 49.1101 56.8778 49.6374 59.7359 49.8505C61.4974 49.9739 65.1371 48.2912 64.7055 51.5669C64.3322 54.405 68.6018 59.5765 61.4391 60.1935C60.6342 60.2608 59.7359 60.6983 59.9342 61.764C60.1209 62.7512 61.1125 62.9083 61.8941 62.9195C64.9505 62.998 68.0069 62.998 71.0516 62.9419C71.8332 62.9307 72.8482 62.7849 72.9881 61.7753C73.1865 60.3954 72.0432 60.2608 71.0283 60.1374C64.7172 59.4082 68.9168 54.8425 68.0186 52.1726C67.0503 49.312 69.6401 49.7495 71.4249 49.7495C74.563 49.7383 76.0912 48.2239 76.0795 45.2174C76.0795 38.6886 76.0562 32.1597 76.0912 25.6308C76.1029 22.9497 75.018 21.0875 72.0666 21.0538C69.1385 21.0202 67.8902 22.7814 67.9136 25.4962C67.9252 27.7846 67.9136 30.0731 67.9136 32.3504Z" />
<path d="M42.5441 38.2167C36.3963 43.1302 31.4034 40.2808 26.3988 38.4523C23.739 37.4763 24.7656 35.0981 24.8823 33.3144C25.0456 30.6782 26.4455 28.5804 29.4085 28.1878C31.7417 27.8737 34.1332 27.8512 36.5013 27.84C43.1274 27.7951 49.7418 27.8064 56.3679 27.84C59.996 27.8625 62.5274 29.2871 63.2857 32.9891C64.044 36.7023 62.4224 38.1494 58.7361 39.5853C54.2098 41.3465 50.3601 41.3353 45.5889 38.6991C45.5889 45.2953 45.5422 51.2521 45.6122 57.1976C45.6472 60.2265 48.1786 59.0037 49.7885 59.2617C50.8151 59.43 51.9933 59.4973 52.0283 60.6976C52.0633 61.9765 50.7917 62.0999 49.8235 62.1111C46.0905 62.1784 42.3575 62.1784 38.6244 62.1223C37.5045 62.0999 35.9413 62.1335 36.1047 60.5181C36.2096 59.4188 37.5045 59.1383 38.5311 59.2954C42.1591 59.8338 42.7191 58.0165 42.6024 55.0437C42.3925 49.8947 42.5441 44.7007 42.5441 38.2167Z" />
<defs>
<clipPath id="clip0_629_3873">
<rect width="65.3861" height="42.034" fill="white" transform="translate(10.8916 21.0533)"/>
</clipPath>
</defs>
</svg>
